400.ufo
<glyph name="parenleft" format="2">
  <advance width="310"/>
  <unicode hex="0028"/>
  <outline>
    <contour>
      <point x="205" y="780" type="curve"/>
      <point x="280" y="780" type="line"/>
      <point x="210" y="630"/>
      <point x="180" y="460"/>
      <point x="180" y="290" type="curve" smooth="yes"/>
      <point x="180" y="120"/>
      <point x="210" y="-50"/>
      <point x="280" y="-200" type="curve"/>
      <point x="205" y="-200" type="line"/>
      <point x="125" y="-50"/>
      <point x="90" y="120"/>
      <point x="90" y="290" type="curve" smooth="yes"/>
      <point x="90" y="460"/>
      <point x="125" y="630"/>
    </contour>
  </outline>
</glyph>
<glyph name="period" format="2">
  <advance width="300"/>
  <unicode hex="002E"/>
  <outline>
    <contour>
      <point x="95" y="40" type="curve" smooth="yes"/>
      <point x="95" y="70"/>
      <point x="120" y="95"/>
      <point x="150" y="95" type="curve" smooth="yes"/>
      <point x="180" y="95"/>
      <point x="205" y="70"/>
      <point x="205" y="40" type="curve" smooth="yes"/>
      <point x="205" y="10"/>
      <point x="180" y="-15"/>
      <point x="150" y="-15" type="curve" smooth="yes"/>
      <point x="120" y="-15"/>
      <point x="95" y="10"/>
    </contour>
  </outline>
</glyph>
<glyph name="one" format="2">
  <advance width="450"/>
  <unicode hex="0031"/>
  <outline>
    <contour>
      <point x="80" y="562" type="line"/>
      <point x="80" y="650" type="line"/>
      <point x="320" y="710" type="line"/>
      <point x="320" y="0" type="line"/>
      <point x="235" y="0" type="line"/>
      <point x="235" y="608" type="line"/>
    </contour>
  </outline>
</glyph>
<glyph name="six" format="2">
  <advance width="576"/>
  <unicode hex="0036"/>
  <outline>
    <contour>
      <point x="131" y="230" type="curve" smooth="yes"/>
      <point x="131" y="134"/>
      <point x="198" y="67"/>
      <point x="288" y="67" type="curve" smooth="yes"/>
      <point x="378" y="67"/>
      <point x="445" y="134"/>
      <point x="445" y="230" type="curve" smooth="yes"/>
      <point x="445" y="326"/>
      <point x="378" y="395"/>
      <point x="288" y="395" type="curve" smooth="yes"/>
      <point x="198" y="395"/>
      <point x="131" y="326"/>
    </contour>
    <contour>
      <point x="330" y="700" type="line"/>
      <point x="437" y="700" type="line"/>
      <point x="218" y="411" type="line"/>
      <point x="212" y="416" type="line"/>
      <point x="239" y="449"/>
      <point x="274" y="457"/>
      <point x="319" y="457" type="curve" smooth="yes"/>
      <point x="433" y="457"/>
      <point x="526" y="359"/>
      <point x="526" y="230" type="curve" smooth="yes"/>
      <point x="526" y="86"/>
      <point x="423" y="-10"/>
      <point x="288" y="-10" type="curve" smooth="yes"/>
      <point x="153" y="-10"/>
      <point x="50" y="86"/>
      <point x="50" y="230" type="curve" smooth="yes"/>
      <point x="50" y="287"/>
      <point x="67" y="338"/>
      <point x="94" y="375" type="curve" smooth="yes"/>
    </contour>
  </outline>
</glyph>
<glyph name="F" format="2">
  <advance width="500"/>
  <unicode hex="0046"/>
  <outline>
    <contour>
      <point x="127" y="620" type="line"/>
      <point x="127" y="700" type="line"/>
      <point x="440" y="700" type="line"/>
      <point x="440" y="620" type="line"/>
    </contour>
    <contour>
      <point x="127" y="340" type="line"/>
      <point x="127" y="420" type="line"/>
      <point x="430" y="420" type="line"/>
      <point x="430" y="340" type="line"/>
    </contour>
    <contour>
      <point x="80" y="700" type="line"/>
      <point x="165" y="700" type="line"/>
      <point x="165" y="0" type="line"/>
      <point x="80" y="0" type="line"/>
    </contour>
  </outline>
</glyph>
<glyph name="K" format="2">
  <advance width="565"/>
  <unicode hex="004B"/>
  <outline>
    <contour>
      <point x="80" y="700" type="line"/>
      <point x="165" y="700" type="line"/>
      <point x="165" y="0" type="line"/>
      <point x="80" y="0" type="line"/>
    </contour>
    <contour>
      <point x="440" y="700" type="line"/>
      <point x="545" y="700" type="line"/>
      <point x="242" y="372" type="line"/>
      <point x="560" y="0" type="line"/>
      <point x="455" y="0" type="line"/>
      <point x="139" y="370" type="line"/>
    </contour>
  </outline>
</glyph>
<glyph name="V" format="2">
  <advance width="660"/>
  <unicode hex="0056"/>
  <outline>
    <contour>
      <point x="330" y="158" type="line"/>
      <point x="560" y="700" type="line"/>
      <point x="655" y="700" type="line"/>
      <point x="330" y="-35" type="line"/>
      <point x="5" y="700" type="line"/>
      <point x="100" y="700" type="line"/>
    </contour>
  </outline>
</glyph>
<glyph name="W" format="2">
  <advance width="990"/>
  <unicode hex="0057"/>
  <outline>
    <contour>
      <point x="703" y="185" type="line"/>
      <point x="885" y="700" type="line"/>
      <point x="980" y="700" type="line"/>
      <point x="705" y="-35" type="line"/>
      <point x="495" y="509" type="line"/>
      <point x="285" y="-35" type="line"/>
      <point x="10" y="700" type="line"/>
      <point x="105" y="700" type="line"/>
      <point x="291" y="185" type="line"/>
      <point x="495" y="735" type="line"/>
    </contour>
  </outline>
</glyph>
<glyph name="Z" format="2">
  <advance width="545"/>
  <unicode hex="005A"/>
  <outline>
    <contour>
      <point x="35" y="620" type="line"/>
      <point x="35" y="700" type="line"/>
      <point x="525" y="700" type="line"/>
      <point x="157" y="80" type="line"/>
      <point x="505" y="80" type="line"/>
      <point x="505" y="0" type="line"/>
      <point x="15" y="0" type="line"/>
      <point x="383" y="620" type="line"/>
    </contour>
  </outline>
</glyph>
<glyph name="grave" format="2">
  <advance width="375"/>
  <unicode hex="0060"/>
  <outline>
    <contour>
      <point x="75" y="660" type="line"/>
      <point x="150" y="700" type="line"/>
      <point x="300" y="540" type="line"/>
      <point x="255" y="510" type="line"/>
    </contour>
  </outline>
</glyph>
<glyph name="h" format="2">
  <advance width="525"/>
  <unicode hex="0068"/>
  <outline>
    <contour>
      <point x="155" y="780" type="line"/>
      <point x="155" y="0" type="line"/>
      <point x="75" y="0" type="line"/>
      <point x="75" y="780" type="line"/>
    </contour>
    <contour>
      <point x="370" y="280" type="line" smooth="yes"/>
      <point x="370" y="356"/>
      <point x="337" y="395"/>
      <point x="272" y="395" type="curve" smooth="yes"/>
      <point x="202" y="395"/>
      <point x="155" y="346"/>
      <point x="155" y="280" type="curve"/>
      <point x="129" y="280" type="line"/>
      <point x="129" y="389"/>
      <point x="197" y="470"/>
      <point x="292" y="470" type="curve" smooth="yes"/>
      <point x="387" y="470"/>
      <point x="450" y="409"/>
      <point x="450" y="290" type="curve" smooth="yes"/>
      <point x="450" y="0" type="line"/>
      <point x="370" y="0" type="line"/>
    </contour>
  </outline>
</glyph>
<glyph name="m" format="2">
  <advance width="780"/>
  <unicode hex="006D"/>
  <outline>
    <contour>
      <point x="705" y="290" type="curve" smooth="yes"/>
      <point x="705" y="0" type="line"/>
      <point x="625" y="0" type="line"/>
      <point x="625" y="280" type="line" smooth="yes"/>
      <point x="625" y="359"/>
      <point x="597" y="395"/>
      <point x="537" y="395" type="curve" smooth="yes"/>
      <point x="471" y="395"/>
      <point x="430" y="352"/>
      <point x="430" y="280" type="curve" smooth="yes"/>
      <point x="430" y="0" type="line"/>
      <point x="350" y="0" type="line"/>
      <point x="350" y="280" type="line" smooth="yes"/>
      <point x="350" y="359"/>
      <point x="322" y="395"/>
      <point x="262" y="395" type="curve" smooth="yes"/>
      <point x="196" y="395"/>
      <point x="155" y="352"/>
      <point x="155" y="280" type="curve" smooth="yes"/>
      <point x="155" y="0" type="line"/>
      <point x="75" y="0" type="line"/>
      <point x="75" y="460" type="line"/>
      <point x="155" y="460" type="line"/>
      <point x="155" y="393" type="line"/>
      <point x="183" y="445"/>
      <point x="225" y="470"/>
      <point x="282" y="470" type="curve" smooth="yes"/>
      <point x="346" y="470"/>
      <point x="394" y="439"/>
      <point x="415" y="384" type="curve"/>
      <point x="447" y="441"/>
      <point x="495" y="470"/>
      <point x="557" y="470" type="curve" smooth="yes"/>
      <point x="651" y="470"/>
      <point x="705" y="404"/>
    </contour>
  </outline>
</glyph>
<glyph name="u" format="2">
  <advance width="525"/>
  <unicode hex="0075"/>
  <outline>
    <contour>
      <point x="155" y="180" type="line" smooth="yes"/>
      <point x="155" y="106.306"/>
      <point x="189" y="65"/>
      <point x="253" y="65" type="curve" smooth="yes"/>
      <point x="323" y="65"/>
      <point x="370" y="112"/>
      <point x="370" y="180" type="curve" smooth="yes"/>
      <point x="370" y="460" type="line"/>
      <point x="450" y="460" type="line"/>
      <point x="450" y="0" type="line"/>
      <point x="370" y="0" type="line"/>
      <point x="370" y="72" type="line"/>
      <point x="339" y="17"/>
      <point x="294" y="-10"/>
      <point x="233" y="-10" type="curve" smooth="yes"/>
      <point x="137" y="-10"/>
      <point x="75" y="60"/>
      <point x="75" y="170" type="curve" smooth="yes"/>
      <point x="75" y="460" type="line"/>
      <point x="155" y="460" type="line"/>
    </contour>
  </outline>
</glyph>
<glyph name="braceright" format="2">
  <advance width="311"/>
  <unicode hex="007D"/>
  <outline>
    <contour>
      <point x="142" y="-80" type="curve" smooth="yes"/>
      <point x="142" y="90" type="line" smooth="yes"/>
      <point x="142" y="179"/>
      <point x="146" y="300"/>
      <point x="255" y="300" type="curve"/>
      <point x="255" y="280" type="line"/>
      <point x="146" y="280"/>
      <point x="142" y="401"/>
      <point x="142" y="490" type="curve" smooth="yes"/>
      <point x="142" y="660" type="line" smooth="yes"/>
      <point x="142" y="686"/>
      <point x="124" y="710"/>
      <point x="94" y="710" type="curve" smooth="yes"/>
      <point x="59" y="710" type="line"/>
      <point x="59" y="780" type="line"/>
      <point x="119" y="780" type="line" smooth="yes"/>
      <point x="163" y="780"/>
      <point x="222" y="739"/>
      <point x="222" y="640" type="curve" smooth="yes"/>
      <point x="222" y="430" type="line" smooth="yes"/>
      <point x="222" y="354"/>
      <point x="240" y="330"/>
      <point x="270" y="320" type="curve"/>
      <point x="270" y="260" type="line"/>
      <point x="240" y="250"/>
      <point x="222" y="226"/>
      <point x="222" y="150" type="curve" smooth="yes"/>
      <point x="222" y="-60" type="line" smooth="yes"/>
      <point x="222" y="-159"/>
      <point x="163" y="-200"/>
      <point x="119" y="-200" type="curve" smooth="yes"/>
      <point x="59" y="-200" type="line"/>
      <point x="59" y="-130" type="line"/>
      <point x="94" y="-130" type="line" smooth="yes"/>
      <point x="124" y="-130"/>
      <point x="142" y="-106"/>
    </contour>
  </outline>
</glyph>
<glyph name="uni00B9" format="2">
  <advance width="470"/>
  <unicode hex="00B9"/>
  <outline>
    <contour>
      <point x="152" y="611" type="line"/>
      <point x="152" y="664" type="line"/>
      <point x="296" y="700" type="line"/>
      <point x="296" y="274" type="line"/>
      <point x="245" y="274" type="line"/>
      <point x="245" y="639" type="line"/>
    </contour>
  </outline>
</glyph>
<glyph name="guillemotright" format="2">
  <advance width="510"/>
  <unicode hex="00BB"/>
  <outline>
    <contour>
      <point x="220" y="251" type="line"/>
      <point x="70" y="445" type="line"/>
      <point x="120" y="490" type="line"/>
      <point x="310" y="255" type="line"/>
      <point x="120" y="20" type="line"/>
      <point x="70" y="65" type="line"/>
    </contour>
    <contour>
      <point x="380" y="251" type="line"/>
      <point x="230" y="445" type="line"/>
      <point x="280" y="490" type="line"/>
      <point x="470" y="255" type="line"/>
      <point x="280" y="20" type="line"/>
      <point x="230" y="65" type="line"/>
    </contour>
  </outline>
</glyph>
<glyph name="questiondown" format="2">
  <advance width="557"/>
  <unicode hex="00BF"/>
  <outline>
    <contour>
      <point x="141" y="200" type="curve" smooth="yes"/>
      <point x="141" y="114"/>
      <point x="198" y="65"/>
      <point x="288" y="65" type="curve" smooth="yes"/>
      <point x="355" y="65"/>
      <point x="401" y="98"/>
      <point x="432" y="148" type="curve"/>
      <point x="497" y="107" type="line"/>
      <point x="451" y="37"/>
      <point x="397" y="-10"/>
      <point x="278" y="-10" type="curve" smooth="yes"/>
      <point x="153" y="-10"/>
      <point x="60" y="81"/>
      <point x="60" y="200" type="curve" smooth="yes"/>
      <point x="60" y="315"/>
      <point x="161" y="404"/>
      <point x="272" y="410" type="curve"/>
      <point x="279" y="530" type="line"/>
      <point x="339" y="530" type="line"/>
      <point x="359" y="355" type="line"/>
      <point x="333" y="355" type="line" smooth="yes"/>
      <point x="213" y="355"/>
      <point x="141" y="276"/>
    </contour>
    <contour>
      <point x="362" y="660" type="curve" smooth="yes"/>
      <point x="362" y="630"/>
      <point x="337" y="605"/>
      <point x="307" y="605" type="curve" smooth="yes"/>
      <point x="277" y="605"/>
      <point x="252" y="630"/>
      <point x="252" y="660" type="curve" smooth="yes"/>
      <point x="252" y="690"/>
      <point x="277" y="715"/>
      <point x="307" y="715" type="curve" smooth="yes"/>
      <point x="337" y="715"/>
      <point x="362" y="690"/>
    </contour>
  </outline>
</glyph>
<glyph name="Acircumflex" format="2">
  <advance width="660"/>
  <unicode hex="00C2"/>
  <outline>
    <contour>
      <point x="147" y="210" type="line"/>
      <point x="177" y="290" type="line"/>
      <point x="487" y="290" type="line"/>
      <point x="517" y="210" type="line"/>
    </contour>
    <contour>
      <point x="330" y="542" type="line"/>
      <point x="212" y="264" type="line"/>
      <point x="204" y="246" type="line"/>
      <point x="100" y="0" type="line"/>
      <point x="5" y="0" type="line"/>
      <point x="330" y="735" type="line"/>
      <point x="655" y="0" type="line"/>
      <point x="560" y="0" type="line"/>
      <point x="458" y="240" type="line"/>
      <point x="450" y="260" type="line"/>
    </contour>
    <contour>
      <point x="330" y="850" type="line"/>
      <point x="220" y="755" type="line"/>
      <point x="170" y="795" type="line"/>
      <point x="330" y="935" type="line"/>
      <point x="490" y="795" type="line"/>
      <point x="440" y="755" type="line"/>
    </contour>
  </outline>
</glyph>
<glyph name="Edieresis" format="2">
  <advance width="550"/>
  <unicode hex="00CB"/>
  <outline>
    <contour>
      <point x="127" y="0" type="line"/>
      <point x="127" y="80" type="line"/>
      <point x="480" y="80" type="line"/>
      <point x="480" y="0" type="line"/>
    </contour>
    <contour>
      <point x="127" y="620" type="line"/>
      <point x="127" y="700" type="line"/>
      <point x="480" y="700" type="line"/>
      <point x="480" y="620" type="line"/>
    </contour>
    <contour>
      <point x="127" y="340" type="line"/>
      <point x="127" y="420" type="line"/>
      <point x="460" y="420" type="line"/>
      <point x="460" y="340" type="line"/>
    </contour>
    <contour>
      <point x="80" y="700" type="line"/>
      <point x="165" y="700" type="line"/>
      <point x="165" y="0" type="line"/>
      <point x="80" y="0" type="line"/>
    </contour>
    <contour>
      <point x="335" y="845" type="curve" smooth="yes"/>
      <point x="335" y="875"/>
      <point x="360" y="900"/>
      <point x="390" y="900" type="curve" smooth="yes"/>
      <point x="420" y="900"/>
      <point x="445" y="875"/>
      <point x="445" y="845" type="curve" smooth="yes"/>
      <point x="445" y="815"/>
      <point x="420" y="790"/>
      <point x="390" y="790" type="curve" smooth="yes"/>
      <point x="360" y="790"/>
      <point x="335" y="815"/>
    </contour>
    <contour>
      <point x="135" y="845" type="curve" smooth="yes"/>
      <point x="135" y="875"/>
      <point x="160" y="900"/>
      <point x="190" y="900" type="curve" smooth="yes"/>
      <point x="220" y="900"/>
      <point x="245" y="875"/>
      <point x="245" y="845" type="curve" smooth="yes"/>
      <point x="245" y="815"/>
      <point x="220" y="790"/>
      <point x="190" y="790" type="curve" smooth="yes"/>
      <point x="160" y="790"/>
      <point x="135" y="815"/>
    </contour>
  </outline>
</glyph>
<glyph name="Igrave" format="2">
  <advance width="245"/>
  <unicode hex="00CC"/>
  <outline>
    <contour>
      <point x="80" y="700" type="line"/>
      <point x="165" y="700" type="line"/>
      <point x="165" y="0" type="line"/>
      <point x="80" y="0" type="line"/>
    </contour>
    <contour>
      <point x="-8" y="920" type="line"/>
      <point x="68" y="960" type="line"/>
      <point x="218" y="800" type="line"/>
      <point x="172" y="770" type="line"/>
    </contour>
  </outline>
</glyph>
<glyph name="Ntilde" format="2">
  <advance width="775"/>
  <unicode hex="00D1"/>
  <outline>
    <contour>
      <point x="610" y="700" type="line"/>
      <point x="695" y="700" type="line"/>
      <point x="695" y="-35" type="line"/>
      <point x="165" y="521" type="line"/>
      <point x="165" y="0" type="line"/>
      <point x="80" y="0" type="line"/>
      <point x="80" y="735" type="line"/>
      <point x="610" y="179" type="line"/>
    </contour>
    <contour>
      <point x="215" y="792" type="line"/>
      <point x="225" y="841"/>
      <point x="274" y="874"/>
      <point x="319" y="874" type="curve" smooth="yes"/>
      <point x="384" y="874"/>
      <point x="389" y="827"/>
      <point x="443" y="827" type="curve" smooth="yes"/>
      <point x="462" y="827"/>
      <point x="479" y="843"/>
      <point x="499" y="875" type="curve"/>
      <point x="545" y="832" type="line"/>
      <point x="529" y="795"/>
      <point x="489" y="759"/>
      <point x="439" y="759" type="curve" smooth="yes"/>
      <point x="384" y="759"/>
      <point x="363" y="806"/>
      <point x="318" y="806" type="curve" smooth="yes"/>
      <point x="277" y="806"/>
      <point x="268" y="770"/>
      <point x="268" y="755" type="curve"/>
    </contour>
  </outline>
</glyph>
<glyph name="Ograve" format="2">
  <advance width="790"/>
  <unicode hex="00D2"/>
  <outline>
    <contour>
      <point x="130" y="350" type="curve" smooth="yes"/>
      <point x="130" y="192"/>
      <point x="242" y="75"/>
      <point x="395" y="75" type="curve" smooth="yes"/>
      <point x="548" y="75"/>
      <point x="660" y="192"/>
      <point x="660" y="350" type="curve" smooth="yes"/>
      <point x="660" y="508"/>
      <point x="548" y="625"/>
      <point x="395" y="625" type="curve" smooth="yes"/>
      <point x="242" y="625"/>
      <point x="130" y="508"/>
    </contour>
    <contour>
      <point x="40" y="350" type="curve" smooth="yes"/>
      <point x="40" y="554"/>
      <point x="191" y="710"/>
      <point x="395" y="710" type="curve" smooth="yes"/>
      <point x="599" y="710"/>
      <point x="750" y="554"/>
      <point x="750" y="350" type="curve" smooth="yes"/>
      <point x="750" y="146"/>
      <point x="599" y="-10"/>
      <point x="395" y="-10" type="curve" smooth="yes"/>
      <point x="191" y="-10"/>
      <point x="40" y="146"/>
    </contour>
    <contour>
      <point x="275" y="920" type="line"/>
      <point x="350" y="960" type="line"/>
      <point x="500" y="800" type="line"/>
      <point x="455" y="770" type="line"/>
    </contour>
  </outline>
</glyph>
<glyph name="Uacute" format="2">
  <advance width="626"/>
  <unicode hex="00DA"/>
  <outline>
    <contour>
      <point x="75" y="700" type="line"/>
      <point x="160" y="700" type="line"/>
      <point x="160" y="230" type="line" smooth="yes"/>
      <point x="160" y="134"/>
      <point x="213" y="70"/>
      <point x="313" y="70" type="curve" smooth="yes"/>
      <point x="413" y="70"/>
      <point x="466" y="134"/>
      <point x="466" y="230" type="curve" smooth="yes"/>
      <point x="466" y="700" type="line"/>
      <point x="551" y="700" type="line"/>
      <point x="551" y="230" type="line" smooth="yes"/>
      <point x="551" y="91"/>
      <point x="458" y="-10"/>
      <point x="313" y="-10" type="curve" smooth="yes"/>
      <point x="168" y="-10"/>
      <point x="75" y="91"/>
      <point x="75" y="230" type="curve" smooth="yes"/>
    </contour>
    <contour>
      <point x="443" y="920" type="line"/>
      <point x="263" y="770" type="line"/>
      <point x="218" y="800" type="line"/>
      <point x="368" y="960" type="line"/>
    </contour>
  </outline>
</glyph>
<glyph name="iacute" format="2">
  <advance width="260"/>
  <unicode hex="00ED"/>
  <outline>
    <contour>
      <point x="90" y="460" type="line"/>
      <point x="170" y="460" type="line"/>
      <point x="170" y="0" type="line"/>
      <point x="90" y="0" type="line"/>
    </contour>
    <contour>
      <point x="290" y="700" type="line"/>
      <point x="110" y="550" type="line"/>
      <point x="65" y="580" type="line"/>
      <point x="215" y="740" type="line"/>
    </contour>
  </outline>
</glyph>
<glyph name="idieresis" format="2">
  <advance width="260"/>
  <unicode hex="00EF"/>
  <outline>
    <contour>
      <point x="90" y="460" type="line"/>
      <point x="170" y="460" type="line"/>
      <point x="170" y="0" type="line"/>
      <point x="90" y="0" type="line"/>
    </contour>
    <contour>
      <point x="175" y="615" type="curve" smooth="yes"/>
      <point x="175" y="645"/>
      <point x="200" y="670"/>
      <point x="230" y="670" type="curve" smooth="yes"/>
      <point x="260" y="670"/>
      <point x="285" y="645"/>
      <point x="285" y="615" type="curve" smooth="yes"/>
      <point x="285" y="585"/>
      <point x="260" y="560"/>
      <point x="230" y="560" type="curve" smooth="yes"/>
      <point x="200" y="560"/>
      <point x="175" y="585"/>
    </contour>
    <contour>
      <point x="-25" y="615" type="curve" smooth="yes"/>
      <point x="-25" y="645"/>
      <point x="0" y="670"/>
      <point x="30" y="670" type="curve" smooth="yes"/>
      <point x="60" y="670"/>
      <point x="85" y="645"/>
      <point x="85" y="615" type="curve" smooth="yes"/>
      <point x="85" y="585"/>
      <point x="60" y="560"/>
      <point x="30" y="560" type="curve" smooth="yes"/>
      <point x="0" y="560"/>
      <point x="-25" y="585"/>
    </contour>
  </outline>
</glyph>
<glyph name="eth" format="2">
  <advance width="576"/>
  <unicode hex="00F0"/>
  <outline>
    <contour>
      <point x="288" y="-10" type="curve" smooth="yes"/>
      <point x="149" y="-10"/>
      <point x="50" y="90"/>
      <point x="50" y="230" type="curve" smooth="yes"/>
      <point x="50" y="361"/>
      <point x="137" y="457"/>
      <point x="257" y="457" type="curve" smooth="yes"/>
      <point x="317" y="457"/>
      <point x="382" y="433"/>
      <point x="449" y="386" type="curve"/>
      <point x="403" y="386" type="line"/>
      <point x="359" y="479"/>
      <point x="287" y="566"/>
      <point x="173" y="669" type="curve"/>
      <point x="221" y="725" type="line"/>
      <point x="435" y="511"/>
      <point x="526" y="364"/>
      <point x="526" y="230" type="curve" smooth="yes"/>
      <point x="526" y="90"/>
      <point x="427" y="-10"/>
    </contour>
    <contour>
      <point x="288" y="67" type="curve" smooth="yes"/>
      <point x="380" y="67"/>
      <point x="445" y="136"/>
      <point x="445" y="230" type="curve" smooth="yes"/>
      <point x="445" y="325"/>
      <point x="378" y="395"/>
      <point x="288" y="395" type="curve" smooth="yes"/>
      <point x="198" y="395"/>
      <point x="131" y="325"/>
      <point x="131" y="230" type="curve" smooth="yes"/>
      <point x="131" y="136"/>
      <point x="196" y="67"/>
    </contour>
    <contour>
      <point x="184" y="503" type="line"/>
      <point x="166" y="550" type="line"/>
      <point x="446" y="657" type="line"/>
      <point x="464" y="610" type="line"/>
    </contour>
  </outline>
</glyph>
<glyph name="otilde" format="2">
  <advance width="546"/>
  <unicode hex="00F5"/>
  <outline>
    <contour>
      <point x="35" y="230" type="curve" smooth="yes"/>
      <point x="35" y="369"/>
      <point x="138" y="470"/>
      <point x="273" y="470" type="curve" smooth="yes"/>
      <point x="408" y="470"/>
      <point x="511" y="369"/>
      <point x="511" y="230" type="curve" smooth="yes"/>
      <point x="511" y="91"/>
      <point x="408" y="-10"/>
      <point x="273" y="-10" type="curve" smooth="yes"/>
      <point x="138" y="-10"/>
      <point x="35" y="91"/>
    </contour>
    <contour>
      <point x="116" y="230" type="curve" smooth="yes"/>
      <point x="116" y="134"/>
      <point x="183" y="65"/>
      <point x="273" y="65" type="curve" smooth="yes"/>
      <point x="363" y="65"/>
      <point x="430" y="134"/>
      <point x="430" y="230" type="curve" smooth="yes"/>
      <point x="430" y="326"/>
      <point x="363" y="395"/>
      <point x="273" y="395" type="curve" smooth="yes"/>
      <point x="183" y="395"/>
      <point x="116" y="326"/>
    </contour>
    <contour>
      <point x="108" y="567" type="line"/>
      <point x="118" y="616"/>
      <point x="167" y="649"/>
      <point x="212" y="649" type="curve" smooth="yes"/>
      <point x="277" y="649"/>
      <point x="282" y="602"/>
      <point x="336" y="602" type="curve" smooth="yes"/>
      <point x="355" y="602"/>
      <point x="372" y="618"/>
      <point x="392" y="650" type="curve"/>
      <point x="438" y="607" type="line"/>
      <point x="422" y="570"/>
      <point x="382" y="534"/>
      <point x="332" y="534" type="curve" smooth="yes"/>
      <point x="277" y="534"/>
      <point x="256" y="581"/>
      <point x="211" y="581" type="curve" smooth="yes"/>
      <point x="170" y="581"/>
      <point x="161" y="545"/>
      <point x="161" y="530" type="curve"/>
    </contour>
  </outline>
</glyph>
<glyph name="divide" format="2">
  <advance width="623"/>
  <unicode hex="00F7"/>
  <outline>
    <contour>
      <point x="255" y="450" type="curve" smooth="yes"/>
      <point x="255" y="480"/>
      <point x="280" y="505"/>
      <point x="310" y="505" type="curve" smooth="yes"/>
      <point x="340" y="505"/>
      <point x="365" y="480"/>
      <point x="365" y="450" type="curve" smooth="yes"/>
      <point x="365" y="420"/>
      <point x="340" y="395"/>
      <point x="310" y="395" type="curve" smooth="yes"/>
      <point x="280" y="395"/>
      <point x="255" y="420"/>
    </contour>
    <contour>
      <point x="255" y="70" type="curve" smooth="yes"/>
      <point x="255" y="100"/>
      <point x="280" y="125"/>
      <point x="310" y="125" type="curve" smooth="yes"/>
      <point x="340" y="125"/>
      <point x="365" y="100"/>
      <point x="365" y="70" type="curve" smooth="yes"/>
      <point x="365" y="40"/>
      <point x="340" y="15"/>
      <point x="310" y="15" type="curve" smooth="yes"/>
      <point x="280" y="15"/>
      <point x="255" y="40"/>
    </contour>
    <contour>
      <point x="60" y="225" type="line"/>
      <point x="60" y="305" type="line"/>
      <point x="560" y="305" type="line"/>
      <point x="560" y="225" type="line"/>
    </contour>
  </outline>
</glyph>
<glyph name="ugrave" format="2">
  <advance width="525"/>
  <unicode hex="00F9"/>
  <outline>
    <contour>
      <point x="370" y="0" type="line"/>
      <point x="370" y="460" type="line"/>
      <point x="450" y="460" type="line"/>
      <point x="450" y="0" type="line"/>
    </contour>
    <contour>
      <point x="155" y="180" type="line" smooth="yes"/>
      <point x="155" y="104"/>
      <point x="188" y="65"/>
      <point x="253" y="65" type="curve" smooth="yes"/>
      <point x="323" y="65"/>
      <point x="370" y="114"/>
      <point x="370" y="180" type="curve"/>
      <point x="406" y="180" type="line"/>
      <point x="406" y="71"/>
      <point x="328" y="-10"/>
      <point x="233" y="-10" type="curve" smooth="yes"/>
      <point x="138" y="-10"/>
      <point x="75" y="51"/>
      <point x="75" y="170" type="curve" smooth="yes"/>
      <point x="75" y="460" type="line"/>
      <point x="155" y="460" type="line"/>
    </contour>
    <contour>
      <point x="142" y="700" type="line"/>
      <point x="218" y="740" type="line"/>
      <point x="368" y="580" type="line"/>
      <point x="322" y="550" type="line"/>
    </contour>
  </outline>
</glyph>
<glyph name="Abreve" format="2">
  <advance width="660"/>
  <unicode hex="0102"/>
  <outline>
    <contour>
      <point x="147" y="210" type="line"/>
      <point x="177" y="290" type="line"/>
      <point x="487" y="290" type="line"/>
      <point x="517" y="210" type="line"/>
    </contour>
    <contour>
      <point x="330" y="542" type="line"/>
      <point x="212" y="264" type="line"/>
      <point x="204" y="246" type="line"/>
      <point x="100" y="0" type="line"/>
      <point x="5" y="0" type="line"/>
      <point x="330" y="735" type="line"/>
      <point x="655" y="0" type="line"/>
      <point x="560" y="0" type="line"/>
      <point x="458" y="240" type="line"/>
      <point x="450" y="260" type="line"/>
    </contour>
    <contour>
      <point x="172" y="935" type="curve"/>
      <point x="243" y="935" type="line"/>
      <point x="243" y="909"/>
      <point x="260" y="860"/>
      <point x="330" y="860" type="curve" smooth="yes"/>
      <point x="400" y="860"/>
      <point x="417" y="909"/>
      <point x="417" y="935" type="curve"/>
      <point x="488" y="935" type="line"/>
      <point x="488" y="866"/>
      <point x="435" y="795"/>
      <point x="330" y="795" type="curve" smooth="yes"/>
      <point x="225" y="795"/>
      <point x="172" y="866"/>
    </contour>
  </outline>
</glyph>
<glyph name="Aogonek" format="2">
  <advance width="660"/>
  <unicode hex="0104"/>
  <outline>
    <contour>
      <point x="147" y="210" type="line"/>
      <point x="177" y="290" type="line"/>
      <point x="487" y="290" type="line"/>
      <point x="517" y="210" type="line"/>
    </contour>
    <contour>
      <point x="330" y="542" type="line"/>
      <point x="212" y="264" type="line"/>
      <point x="204" y="246" type="line"/>
      <point x="100" y="0" type="line"/>
      <point x="5" y="0" type="line"/>
      <point x="330" y="735" type="line"/>
      <point x="655" y="0" type="line"/>
      <point x="560" y="0" type="line"/>
      <point x="458" y="240" type="line"/>
      <point x="450" y="260" type="line"/>
    </contour>
    <contour>
      <point x="660" y="-130" type="curve"/>
      <point x="693" y="-180" type="line"/>
      <point x="678" y="-200"/>
      <point x="648" y="-220"/>
      <point x="605" y="-220" type="curve" smooth="yes"/>
      <point x="521" y="-220"/>
      <point x="482" y="-179"/>
      <point x="482" y="-120" type="curve" smooth="yes"/>
      <point x="482" y="-61"/>
      <point x="544" y="-11"/>
      <point x="614" y="25" type="curve"/>
      <point x="655" y="0" type="line"/>
      <point x="603" y="-22"/>
      <point x="562" y="-63"/>
      <point x="562" y="-100" type="curve" smooth="yes"/>
      <point x="562" y="-136"/>
      <point x="580" y="-150"/>
      <point x="610" y="-150" type="curve" smooth="yes"/>
      <point x="636" y="-150"/>
      <point x="646" y="-143"/>
    </contour>
  </outline>
</glyph>
<glyph name="Ebreve" format="2">
  <advance width="550"/>
  <unicode hex="0114"/>
  <outline>
    <contour>
      <point x="127" y="0" type="line"/>
      <point x="127" y="80" type="line"/>
      <point x="480" y="80" type="line"/>
      <point x="480" y="0" type="line"/>
    </contour>
    <contour>
      <point x="127" y="620" type="line"/>
      <point x="127" y="700" type="line"/>
      <point x="480" y="700" type="line"/>
      <point x="480" y="620" type="line"/>
    </contour>
    <contour>
      <point x="127" y="340" type="line"/>
      <point x="127" y="420" type="line"/>
      <point x="460" y="420" type="line"/>
      <point x="460" y="340" type="line"/>
    </contour>
    <contour>
      <point x="80" y="700" type="line"/>
      <point x="165" y="700" type="line"/>
      <point x="165" y="0" type="line"/>
      <point x="80" y="0" type="line"/>
    </contour>
    <contour>
      <point x="122" y="910" type="curve"/>
      <point x="193" y="910" type="line"/>
      <point x="193" y="884"/>
      <point x="210" y="835"/>
      <point x="280" y="835" type="curve" smooth="yes"/>
      <point x="350" y="835"/>
      <point x="367" y="884"/>
      <point x="367" y="910" type="curve"/>
      <point x="438" y="910" type="line"/>
      <point x="438" y="841"/>
      <point x="385" y="770"/>
      <point x="280" y="770" type="curve" smooth="yes"/>
      <point x="175" y="770"/>
      <point x="122" y="841"/>
    </contour>
  </outline>
</glyph>
<glyph name="itilde" format="2">
  <advance width="260"/>
  <unicode hex="0129"/>
  <outline>
    <contour>
      <point x="90" y="460" type="line"/>
      <point x="170" y="460" type="line"/>
      <point x="170" y="0" type="line"/>
      <point x="90" y="0" type="line"/>
    </contour>
    <contour>
      <point x="-35" y="567" type="line"/>
      <point x="-25" y="616"/>
      <point x="24" y="649"/>
      <point x="69" y="649" type="curve" smooth="yes"/>
      <point x="134" y="649"/>
      <point x="139" y="602"/>
      <point x="193" y="602" type="curve" smooth="yes"/>
      <point x="212" y="602"/>
      <point x="229" y="618"/>
      <point x="249" y="650" type="curve"/>
      <point x="295" y="607" type="line"/>
      <point x="279" y="570"/>
      <point x="239" y="534"/>
      <point x="189" y="534" type="curve" smooth="yes"/>
      <point x="134" y="534"/>
      <point x="113" y="581"/>
      <point x="68" y="581" type="curve" smooth="yes"/>
      <point x="27" y="581"/>
      <point x="18" y="545"/>
      <point x="18" y="530" type="curve"/>
    </contour>
  </outline>
</glyph>
<glyph name="Idotaccent" format="2">
  <advance width="245"/>
  <unicode hex="0130"/>
  <outline>
    <contour>
      <point x="80" y="700" type="line"/>
      <point x="165" y="700" type="line"/>
      <point x="165" y="0" type="line"/>
      <point x="80" y="0" type="line"/>
    </contour>
    <contour>
      <point x="67" y="825" type="curve" smooth="yes"/>
      <point x="67" y="855"/>
      <point x="92" y="880"/>
      <point x="122" y="880" type="curve" smooth="yes"/>
      <point x="152" y="880"/>
      <point x="177" y="855"/>
      <point x="177" y="825" type="curve" smooth="yes"/>
      <point x="177" y="795"/>
      <point x="152" y="770"/>
      <point x="122" y="770" type="curve" smooth="yes"/>
      <point x="92" y="770"/>
      <point x="67" y="795"/>
    </contour>
  </outline>
</glyph>
<glyph name="kgreenlandic" format="2">
  <advance width="440"/>
  <unicode hex="0138"/>
  <outline>
    <contour>
      <point x="70" y="460" type="line"/>
      <point x="150" y="460" type="line"/>
      <point x="150" y="0" type="line"/>
      <point x="70" y="0" type="line"/>
    </contour>
    <contour>
      <point x="320" y="460" type="line"/>
      <point x="420" y="460" type="line"/>
      <point x="220" y="270" type="line"/>
      <point x="440" y="0" type="line"/>
      <point x="340" y="0" type="line"/>
      <point x="120" y="270" type="line"/>
    </contour>
  </outline>
</glyph>
<glyph name="lacute" format="2">
  <advance width="230"/>
  <unicode hex="013A"/>
  <outline>
    <contour>
      <point x="75" y="780" type="line"/>
      <point x="155" y="780" type="line"/>
      <point x="155" y="0" type="line"/>
      <point x="75" y="0" type="line"/>
    </contour>
    <contour>
      <point x="245" y="990" type="line"/>
      <point x="65" y="840" type="line"/>
      <point x="20" y="870" type="line"/>
      <point x="170" y="1030" type="line"/>
    </contour>
  </outline>
</glyph>
<glyph name="uni013C" format="2">
  <advance width="230"/>
  <unicode hex="013C"/>
  <outline>
    <contour>
      <point x="75" y="780" type="line"/>
      <point x="155" y="780" type="line"/>
      <point x="155" y="0" type="line"/>
      <point x="75" y="0" type="line"/>
    </contour>
    <contour>
      <point x="119" y="-60" type="line"/>
      <point x="199" y="-90" type="line"/>
      <point x="89" y="-340" type="line"/>
      <point x="31" y="-319" type="line"/>
    </contour>
  </outline>
</glyph>
<glyph name="Lcaron" format="2">
  <advance width="450"/>
  <unicode hex="013D"/>
  <outline>
    <contour>
      <point x="80" y="700" type="line"/>
      <point x="165" y="700" type="line"/>
      <point x="165" y="80" type="line"/>
      <point x="440" y="80" type="line"/>
      <point x="440" y="0" type="line"/>
      <point x="80" y="0" type="line"/>
    </contour>
    <contour>
      <point x="328" y="710" type="line"/>
      <point x="408" y="680" type="line"/>
      <point x="298" y="430" type="line"/>
      <point x="240" y="451" type="line"/>
    </contour>
  </outline>
</glyph>
<glyph name="OE" format="2">
  <advance width="985"/>
  <unicode hex="0152"/>
  <outline>
    <contour>
      <point x="562" y="340" type="line"/>
      <point x="562" y="420" type="line"/>
      <point x="895" y="420" type="line"/>
      <point x="895" y="340" type="line"/>
    </contour>
    <contour>
      <point x="515" y="670" type="line"/>
      <point x="600" y="670" type="line"/>
      <point x="600" y="30" type="line"/>
      <point x="515" y="30" type="line"/>
    </contour>
    <contour>
      <point x="916" y="80" type="line"/>
      <point x="916" y="0" type="line"/>
      <point x="390" y="0" type="line" smooth="yes"/>
      <point x="187" y="0"/>
      <point x="40" y="141"/>
      <point x="40" y="350" type="curve" smooth="yes"/>
      <point x="40" y="559"/>
      <point x="186" y="700"/>
      <point x="390" y="700" type="curve" smooth="yes"/>
      <point x="915" y="700" type="line"/>
      <point x="915" y="620" type="line"/>
      <point x="568" y="620" type="line"/>
      <point x="551" y="620" type="line"/>
      <point x="390" y="620" type="line" smooth="yes"/>
      <point x="232" y="620"/>
      <point x="125" y="513"/>
      <point x="125" y="350" type="curve" smooth="yes"/>
      <point x="125" y="187"/>
      <point x="233" y="80"/>
      <point x="390" y="80" type="curve" smooth="yes"/>
      <point x="548" y="80" type="line"/>
      <point x="572" y="80" type="line"/>
    </contour>
  </outline>
</glyph>
<glyph name="racute" format="2">
  <advance width="343"/>
  <unicode hex="0155"/>
  <outline>
    <contour>
      <point x="155" y="460" type="line"/>
      <point x="155" y="0" type="line"/>
      <point x="75" y="0" type="line"/>
      <point x="75" y="460" type="line"/>
    </contour>
    <contour>
      <point x="294" y="372" type="line"/>
      <point x="272" y="388"/>
      <point x="258" y="395"/>
      <point x="232" y="395" type="curve" smooth="yes"/>
      <point x="172" y="395"/>
      <point x="155" y="346"/>
      <point x="155" y="280" type="curve"/>
      <point x="119" y="280" type="line"/>
      <point x="119" y="389"/>
      <point x="187" y="470"/>
      <point x="252" y="470" type="curve" smooth="yes"/>
      <point x="285" y="470"/>
      <point x="314" y="463"/>
      <point x="338" y="438" type="curve"/>
    </contour>
    <contour>
      <point x="336" y="680" type="line"/>
      <point x="156" y="530" type="line"/>
      <point x="112" y="560" type="line"/>
      <point x="262" y="720" type="line"/>
    </contour>
  </outline>
</glyph>
<glyph name="Scaron" format="2">
  <advance width="548"/>
  <unicode hex="0160"/>
  <outline>
    <contour>
      <point x="112" y="226" type="line"/>
      <point x="154" y="130"/>
      <point x="208" y="70"/>
      <point x="295" y="70" type="curve" smooth="yes"/>
      <point x="375" y="70"/>
      <point x="415" y="113"/>
      <point x="415" y="183" type="curve" smooth="yes"/>
      <point x="415" y="273"/>
      <point x="331" y="309"/>
      <point x="251" y="338" type="curve" smooth="yes"/>
      <point x="181" y="363"/>
      <point x="75" y="416"/>
      <point x="75" y="535" type="curve" smooth="yes"/>
      <point x="75" y="641"/>
      <point x="164" y="710"/>
      <point x="278" y="710" type="curve" smooth="yes"/>
      <point x="391" y="710"/>
      <point x="466" y="631"/>
      <point x="494" y="560" type="curve"/>
      <point x="425" y="514" type="line"/>
      <point x="395" y="572"/>
      <point x="356" y="629"/>
      <point x="279" y="629" type="curve" smooth="yes"/>
      <point x="209" y="629"/>
      <point x="164" y="590"/>
      <point x="164" y="529" type="curve" smooth="yes"/>
      <point x="164" y="461"/>
      <point x="241" y="428"/>
      <point x="326" y="396" type="curve" smooth="yes"/>
      <point x="399" y="369"/>
      <point x="503" y="317"/>
      <point x="503" y="190" type="curve" smooth="yes"/>
      <point x="503" y="71"/>
      <point x="429" y="-10"/>
      <point x="290" y="-10" type="curve" smooth="yes"/>
      <point x="175" y="-10"/>
      <point x="84" y="68"/>
      <point x="40" y="183" type="curve"/>
    </contour>
    <contour>
      <point x="278" y="855" type="line"/>
      <point x="388" y="950" type="line"/>
      <point x="438" y="910" type="line"/>
      <point x="278" y="770" type="line"/>
      <point x="118" y="910" type="line"/>
      <point x="168" y="950" type="line"/>
    </contour>
  </outline>
</glyph>
<glyph name="Umacron" format="2">
  <advance width="626"/>
  <unicode hex="016A"/>
  <outline>
    <contour>
      <point x="75" y="700" type="line"/>
      <point x="160" y="700" type="line"/>
      <point x="160" y="230" type="line" smooth="yes"/>
      <point x="160" y="134"/>
      <point x="213" y="70"/>
      <point x="313" y="70" type="curve" smooth="yes"/>
      <point x="413" y="70"/>
      <point x="466" y="134"/>
      <point x="466" y="230" type="curve" smooth="yes"/>
      <point x="466" y="700" type="line"/>
      <point x="551" y="700" type="line"/>
      <point x="551" y="230" type="line" smooth="yes"/>
      <point x="551" y="91"/>
      <point x="458" y="-10"/>
      <point x="313" y="-10" type="curve" smooth="yes"/>
      <point x="168" y="-10"/>
      <point x="75" y="91"/>
      <point x="75" y="230" type="curve" smooth="yes"/>
    </contour>
    <contour>
      <point x="138.25" y="770" type="line"/>
      <point x="138.25" y="845" type="line"/>
      <point x="488.25" y="845" type="line"/>
      <point x="488.25" y="770" type="line"/>
    </contour>
  </outline>
</glyph>
<glyph name="uring" format="2">
  <advance width="525"/>
  <unicode hex="016F"/>
  <outline>
    <contour>
      <point x="370" y="0" type="line"/>
      <point x="370" y="460" type="line"/>
      <point x="450" y="460" type="line"/>
      <point x="450" y="0" type="line"/>
    </contour>
    <contour>
      <point x="155" y="180" type="line" smooth="yes"/>
      <point x="155" y="104"/>
      <point x="188" y="65"/>
      <point x="253" y="65" type="curve" smooth="yes"/>
      <point x="323" y="65"/>
      <point x="370" y="114"/>
      <point x="370" y="180" type="curve"/>
      <point x="396" y="180" type="line"/>
      <point x="396" y="71"/>
      <point x="328" y="-10"/>
      <point x="233" y="-10" type="curve" smooth="yes"/>
      <point x="138" y="-10"/>
      <point x="75" y="51"/>
      <point x="75" y="170" type="curve" smooth="yes"/>
      <point x="75" y="460" type="line"/>
      <point x="155" y="460" type="line"/>
    </contour>
    <contour>
      <point x="160.5" y="630" type="curve" smooth="yes"/>
      <point x="160.5" y="690"/>
      <point x="210.5" y="730"/>
      <point x="262.5" y="730" type="curve" smooth="yes"/>
      <point x="314.5" y="730"/>
      <point x="364.5" y="690"/>
      <point x="364.5" y="630" type="curve" smooth="yes"/>
      <point x="364.5" y="570"/>
      <point x="314.5" y="530"/>
      <point x="262.5" y="530" type="curve" smooth="yes"/>
      <point x="210.5" y="530"/>
      <point x="160.5" y="570"/>
    </contour>
    <contour>
      <point x="211.5" y="630" type="curve" smooth="yes"/>
      <point x="211.5" y="597"/>
      <point x="237.5" y="577"/>
      <point x="262.5" y="577" type="curve" smooth="yes"/>
      <point x="287.5" y="577"/>
      <point x="313.5" y="597"/>
      <point x="313.5" y="630" type="curve" smooth="yes"/>
      <point x="313.5" y="663"/>
      <point x="287.5" y="683"/>
      <point x="262.5" y="683" type="curve" smooth="yes"/>
      <point x="237.5" y="683"/>
      <point x="211.5" y="663"/>
    </contour>
  </outline>
</glyph>
<glyph name="wcircumflex" format="2">
  <advance width="680"/>
  <unicode hex="0175"/>
  <outline>
    <contour>
      <point x="5" y="460" type="line"/>
      <point x="95" y="460" type="line"/>
      <point x="210" y="161" type="line"/>
      <point x="335" y="495" type="line"/>
      <point x="469" y="159" type="line"/>
      <point x="585" y="460" type="line"/>
      <point x="675" y="460" type="line"/>
      <point x="475" y="-35" type="line"/>
      <point x="336" y="300" type="line"/>
      <point x="205" y="-35" type="line"/>
    </contour>
    <contour>
      <point x="335" y="650" type="line"/>
      <point x="225" y="555" type="line"/>
      <point x="175" y="595" type="line"/>
      <point x="335" y="735" type="line"/>
      <point x="495" y="595" type="line"/>
      <point x="445" y="555" type="line"/>
    </contour>
  </outline>
</glyph>
<glyph name="florin" format="2">
  <advance width="600"/>
  <unicode hex="0192"/>
  <outline>
    <contour>
      <point x="204" y="-200" type="curve" smooth="yes"/>
      <point x="174" y="-199"/>
      <point x="149" y="-188"/>
      <point x="115" y="-158" type="curve"/>
      <point x="158" y="-96" type="line"/>
      <point x="179" y="-116"/>
      <point x="190" y="-122"/>
      <point x="202" y="-122" type="curve" smooth="yes"/>
      <point x="232" y="-122"/>
      <point x="250" y="-90"/>
      <point x="254" y="-32" type="curve" smooth="yes"/>
      <point x="278" y="385" type="line"/>
      <point x="216" y="385" type="line"/>
      <point x="222" y="460" type="line"/>
      <point x="282" y="460" type="line"/>
      <point x="291" y="626" type="line" smooth="yes"/>
      <point x="297" y="728"/>
      <point x="347" y="791"/>
      <point x="422" y="789" type="curve" smooth="yes"/>
      <point x="452" y="788"/>
      <point x="477" y="777"/>
      <point x="511" y="747" type="curve"/>
      <point x="468" y="685" type="line"/>
      <point x="447" y="705"/>
      <point x="436" y="711"/>
      <point x="424" y="711" type="curve" smooth="yes"/>
      <point x="394" y="711"/>
      <point x="376" y="678"/>
      <point x="372" y="620" type="curve" smooth="yes"/>
      <point x="362" y="460" type="line"/>
      <point x="442" y="460" type="line"/>
      <point x="436" y="385" type="line"/>
      <point x="358" y="385" type="line"/>
      <point x="335" y="-38" type="line" smooth="yes"/>
      <point x="329" y="-140"/>
      <point x="278" y="-202"/>
    </contour>
  </outline>
</glyph>
<glyph name="ogonek" format="2">
  <advance width="260"/>
  <unicode hex="02DB"/>
  <outline>
    <contour>
      <point x="194" y="-130" type="curve"/>
      <point x="227" y="-180" type="line"/>
      <point x="212" y="-200"/>
      <point x="182" y="-220"/>
      <point x="139" y="-220" type="curve" smooth="yes"/>
      <point x="55" y="-220"/>
      <point x="16" y="-179"/>
      <point x="16" y="-120" type="curve" smooth="yes"/>
      <point x="16" y="-61"/>
      <point x="78" y="-11"/>
      <point x="148" y="25" type="curve"/>
      <point x="189" y="0" type="line"/>
      <point x="137" y="-22"/>
      <point x="96" y="-63"/>
      <point x="96" y="-100" type="curve" smooth="yes"/>
      <point x="96" y="-136"/>
      <point x="114" y="-150"/>
      <point x="144" y="-150" type="curve" smooth="yes"/>
      <point x="170" y="-150"/>
      <point x="180" y="-143"/>
    </contour>
  </outline>
</glyph>
<glyph name="uni0302" format="2">
  <unicode hex="0302"/>
  <outline>
    <contour>
      <point x="41" y="547" type="line"/>
      <point x="0" y="596" type="line"/>
      <point x="151" y="726" type="line"/>
      <point x="302" y="596" type="line"/>
      <point x="261" y="547" type="line"/>
      <point x="134" y="656" type="line"/>
      <point x="168" y="656" type="line"/>
    </contour>
  </outline>
</glyph>
<glyph name="tildecomb" format="2">
  <unicode hex="0303"/>
  <outline>
    <contour>
      <point x="53" y="588" type="curve"/>
      <point x="0" y="625" type="line"/>
      <point x="10" y="674"/>
      <point x="59" y="707"/>
      <point x="104" y="707" type="curve" smooth="yes"/>
      <point x="169" y="707"/>
      <point x="174" y="660"/>
      <point x="228" y="660" type="curve" smooth="yes"/>
      <point x="247" y="660"/>
      <point x="264" y="676"/>
      <point x="284" y="708" type="curve"/>
      <point x="330" y="665" type="line"/>
      <point x="314" y="628"/>
      <point x="274" y="592"/>
      <point x="224" y="592" type="curve" smooth="yes"/>
      <point x="169" y="592"/>
      <point x="148" y="639"/>
      <point x="103" y="639" type="curve" smooth="yes"/>
      <point x="62" y="639"/>
      <point x="53" y="603"/>
    </contour>
  </outline>
</glyph>
<glyph name="uni0306" format="2">
  <unicode hex="0306"/>
  <outline>
    <contour>
      <point x="158" y="540" type="curve" smooth="yes"/>
      <point x="66" y="540"/>
      <point x="0" y="599"/>
      <point x="0" y="680" type="curve"/>
      <point x="71" y="680" type="line"/>
      <point x="71" y="637"/>
      <point x="108" y="605"/>
      <point x="158" y="605" type="curve" smooth="yes"/>
      <point x="208" y="605"/>
      <point x="245" y="637"/>
      <point x="245" y="680" type="curve"/>
      <point x="316" y="680" type="line"/>
      <point x="316" y="599"/>
      <point x="250" y="540"/>
    </contour>
  </outline>
</glyph>
<glyph name="uni030A" format="2">
  <unicode hex="030A"/>
  <outline>
    <contour>
      <point x="112" y="520" type="curve" smooth="yes"/>
      <point x="50" y="520"/>
      <point x="0" y="569"/>
      <point x="0" y="630" type="curve" smooth="yes"/>
      <point x="0" y="691"/>
      <point x="50" y="740"/>
      <point x="112" y="740" type="curve" smooth="yes"/>
      <point x="174" y="740"/>
      <point x="225" y="691"/>
      <point x="225" y="630" type="curve" smooth="yes"/>
      <point x="225" y="569"/>
      <point x="174" y="520"/>
    </contour>
    <contour>
      <point x="112" y="572" type="curve" smooth="yes"/>
      <point x="143" y="572"/>
      <point x="168" y="598"/>
      <point x="168" y="630" type="curve" smooth="yes"/>
      <point x="168" y="662"/>
      <point x="143" y="688"/>
      <point x="112" y="688" type="curve" smooth="yes"/>
      <point x="81" y="688"/>
      <point x="56" y="662"/>
      <point x="56" y="630" type="curve" smooth="yes"/>
      <point x="56" y="598"/>
      <point x="81" y="572"/>
    </contour>
  </outline>
</glyph>
<glyph name="uni030C" format="2">
  <unicode hex="030C"/>
  <outline>
    <contour>
      <point x="151" y="547" type="line"/>
      <point x="0" y="678" type="line"/>
      <point x="41" y="726" type="line"/>
      <point x="168" y="617" type="line"/>
      <point x="134" y="617" type="line"/>
      <point x="261" y="726" type="line"/>
      <point x="302" y="678" type="line"/>
    </contour>
  </outline>
</glyph>
<glyph name="uni0327" format="2">
  <unicode hex="0327"/>
  <outline>
    <contour>
      <point x="89" y="-220" type="curve" smooth="yes"/>
      <point x="52" y="-220"/>
      <point x="28" y="-212"/>
      <point x="0" y="-192" type="curve"/>
      <point x="23" y="-147" type="line"/>
      <point x="51" y="-163"/>
      <point x="63" y="-166"/>
      <point x="89" y="-166" type="curve" smooth="yes"/>
      <point x="121" y="-166"/>
      <point x="139" y="-152"/>
      <point x="139" y="-126" type="curve" smooth="yes"/>
      <point x="139" y="-102"/>
      <point x="123" y="-90"/>
      <point x="89" y="-90" type="curve" smooth="yes"/>
      <point x="73" y="-90"/>
      <point x="50" y="-91"/>
      <point x="37" y="-93" type="curve"/>
      <point x="117" y="60" type="line"/>
      <point x="178" y="60" type="line"/>
      <point x="103" y="-72" type="line"/>
      <point x="79" y="-72" type="line"/>
      <point x="89" y="-52"/>
      <point x="98" y="-47"/>
      <point x="123" y="-47" type="curve" smooth="yes"/>
      <point x="166" y="-47"/>
      <point x="196" y="-86"/>
      <point x="196" y="-126" type="curve" smooth="yes"/>
      <point x="196" y="-180"/>
      <point x="151" y="-220"/>
    </contour>
  </outline>
</glyph>
<glyph name="uni0394" format="2">
  <advance width="600"/>
  <unicode hex="0394"/>
  <outline>
    <contour>
      <point x="18" y="0" type="line"/>
      <point x="581" y="0" type="line"/>
      <point x="300" y="800" type="line"/>
    </contour>
    <contour>
      <point x="138" y="76" type="line"/>
      <point x="300" y="580" type="line"/>
      <point x="462" y="76" type="line"/>
    </contour>
  </outline>
</glyph>
<glyph name="uni0414" format="2">
  <advance width="795"/>
  <unicode hex="0414"/>
  <outline>
    <contour>
      <point x="395" y="542" type="line"/>
      <point x="200" y="30" type="line"/>
      <point x="110" y="30" type="line"/>
      <point x="395" y="735" type="line"/>
      <point x="680" y="30" type="line"/>
      <point x="590" y="30" type="line"/>
    </contour>
    <contour>
      <point x="675" y="0" type="line"/>
      <point x="115" y="0" type="line"/>
      <point x="115" y="-110" type="line"/>
      <point x="40" y="-110" type="line"/>
      <point x="40" y="80" type="line"/>
      <point x="750" y="80" type="line"/>
      <point x="750" y="-110" type="line"/>
      <point x="675" y="-110" type="line"/>
    </contour>
  </outline>
</glyph>
<glyph name="uni041B" format="2">
  <advance width="658"/>
  <unicode hex="041B"/>
  <outline>
    <contour>
      <point x="578" y="700" type="line"/>
      <point x="578" y="0" type="line"/>
      <point x="493" y="0" type="line"/>
      <point x="493" y="620" type="line"/>
      <point x="183" y="620" type="line"/>
      <point x="183" y="240" type="line" smooth="yes"/>
      <point x="183" y="111"/>
      <point x="124" y="0"/>
      <point x="10" y="0" type="curve"/>
      <point x="10" y="73" type="line"/>
      <point x="70" y="73"/>
      <point x="103" y="154"/>
      <point x="103" y="260" type="curve" smooth="yes"/>
      <point x="103" y="700" type="line"/>
    </contour>
  </outline>
</glyph>
<glyph name="uni042A" format="2">
  <advance width="658"/>
  <unicode hex="042A"/>
  <outline>
    <contour>
      <point x="237" y="340" type="line"/>
      <point x="237" y="420" type="line"/>
      <point x="380" y="420" type="line" smooth="yes"/>
      <point x="515" y="420"/>
      <point x="618" y="339"/>
      <point x="618" y="210" type="curve" smooth="yes"/>
      <point x="618" y="81"/>
      <point x="515" y="0"/>
      <point x="380" y="0" type="curve" smooth="yes"/>
      <point x="237" y="0" type="line"/>
      <point x="237" y="80" type="line"/>
      <point x="380" y="80" type="line" smooth="yes"/>
      <point x="470" y="80"/>
      <point x="533" y="124"/>
      <point x="533" y="210" type="curve" smooth="yes"/>
      <point x="533" y="296"/>
      <point x="470" y="340"/>
      <point x="380" y="340" type="curve" smooth="yes"/>
    </contour>
    <contour>
      <point x="190" y="620" type="line"/>
      <point x="10" y="620" type="line"/>
      <point x="10" y="700" type="line"/>
      <point x="275" y="700" type="line"/>
      <point x="275" y="0" type="line"/>
      <point x="190" y="0" type="line"/>
    </contour>
  </outline>
</glyph>
<glyph name="uni042C" format="2">
  <advance width="548"/>
  <unicode hex="042C"/>
  <outline>
    <contour>
      <point x="80" y="700" type="line"/>
      <point x="165" y="700" type="line"/>
      <point x="165" y="0" type="line"/>
      <point x="80" y="0" type="line"/>
    </contour>
    <contour>
      <point x="127" y="340" type="line"/>
      <point x="127" y="420" type="line"/>
      <point x="270" y="420" type="line" smooth="yes"/>
      <point x="405" y="420"/>
      <point x="508" y="339"/>
      <point x="508" y="210" type="curve" smooth="yes"/>
      <point x="508" y="81"/>
      <point x="405" y="0"/>
      <point x="270" y="0" type="curve" smooth="yes"/>
      <point x="127" y="0" type="line"/>
      <point x="127" y="80" type="line"/>
      <point x="270" y="80" type="line" smooth="yes"/>
      <point x="360" y="80"/>
      <point x="423" y="124"/>
      <point x="423" y="210" type="curve" smooth="yes"/>
      <point x="423" y="296"/>
      <point x="360" y="340"/>
      <point x="270" y="340" type="curve" smooth="yes"/>
    </contour>
  </outline>
</glyph>
<glyph name="uni042D" format="2">
  <advance width="685"/>
  <unicode hex="042D"/>
  <outline>
    <contour>
      <point x="132" y="310" type="line"/>
      <point x="132" y="390" type="line"/>
      <point x="555" y="390" type="line"/>
      <point x="555" y="310" type="line"/>
    </contour>
    <contour>
      <point x="555" y="350" type="curve" smooth="yes"/>
      <point x="555" y="513"/>
      <point x="433" y="625"/>
      <point x="295" y="625" type="curve" smooth="yes"/>
      <point x="196" y="625"/>
      <point x="119" y="583"/>
      <point x="70" y="521" type="curve"/>
      <point x="70" y="633" type="line"/>
      <point x="129" y="685"/>
      <point x="193" y="710"/>
      <point x="295" y="710" type="curve" smooth="yes"/>
      <point x="489" y="710"/>
      <point x="645" y="559"/>
      <point x="645" y="350" type="curve" smooth="yes"/>
      <point x="645" y="141"/>
      <point x="489" y="-10"/>
      <point x="295" y="-10" type="curve" smooth="yes"/>
      <point x="193" y="-10"/>
      <point x="129" y="15"/>
      <point x="70" y="67" type="curve"/>
      <point x="70" y="179" type="line"/>
      <point x="119" y="117"/>
      <point x="196" y="75"/>
      <point x="295" y="75" type="curve" smooth="yes"/>
      <point x="433" y="75"/>
      <point x="555" y="187"/>
    </contour>
  </outline>
</glyph>
<glyph name="uni0434" format="2">
  <advance width="655"/>
  <unicode hex="0434"/>
  <outline>
    <contour>
      <point x="325" y="322" type="line"/>
      <point x="190" y="30" type="line"/>
      <point x="100" y="30" type="line"/>
      <point x="325" y="495" type="line"/>
      <point x="550" y="30" type="line"/>
      <point x="460" y="30" type="line"/>
    </contour>
    <contour>
      <point x="530" y="0" type="line"/>
      <point x="125" y="0" type="line"/>
      <point x="125" y="-90" type="line"/>
      <point x="40" y="-90" type="line"/>
      <point x="40" y="75" type="line"/>
      <point x="610" y="75" type="line"/>
      <point x="610" y="-90" type="line"/>
      <point x="530" y="-90" type="line"/>
    </contour>
  </outline>
</glyph>
<glyph name="uni0436" format="2">
  <advance width="675"/>
  <unicode hex="0436"/>
  <outline>
    <contour>
      <point x="555" y="460" type="line"/>
      <point x="655" y="460" type="line"/>
      <point x="445" y="260" type="line"/>
      <point x="675" y="0" type="line"/>
      <point x="575" y="0" type="line"/>
      <point x="355" y="270" type="line"/>
    </contour>
    <contour>
      <point x="375" y="460" type="line"/>
      <point x="375" y="0" type="line"/>
      <point x="300" y="0" type="line"/>
      <point x="300" y="460" type="line"/>
    </contour>
    <contour>
      <point x="120" y="460" type="line"/>
      <point x="320" y="270" type="line"/>
      <point x="100" y="0" type="line"/>
      <point x="0" y="0" type="line"/>
      <point x="230" y="260" type="line"/>
      <point x="20" y="460" type="line"/>
    </contour>
  </outline>
</glyph>
<glyph name="uni0438" format="2">
  <advance width="545"/>
  <unicode hex="0438"/>
  <outline>
    <contour>
      <point x="460" y="380" type="line"/>
      <point x="80" y="-35" type="line"/>
      <point x="85" y="80" type="line"/>
      <point x="465" y="495" type="line"/>
    </contour>
    <contour>
      <point x="160" y="460" type="line"/>
      <point x="160" y="75" type="line"/>
      <point x="80" y="-35" type="line"/>
      <point x="80" y="460" type="line"/>
    </contour>
    <contour>
      <point x="465" y="495" type="line"/>
      <point x="465" y="0" type="line"/>
      <point x="385" y="0" type="line"/>
      <point x="385" y="385" type="line"/>
    </contour>
  </outline>
</glyph>
<glyph name="uni043B" format="2">
  <advance width="558"/>
  <unicode hex="043B"/>
  <outline>
    <contour>
      <point x="478" y="460" type="line"/>
      <point x="478" y="0" type="line"/>
      <point x="398" y="0" type="line"/>
      <point x="398" y="385" type="line"/>
      <point x="163" y="385" type="line"/>
      <point x="163" y="160" type="line" smooth="yes"/>
      <point x="163" y="51"/>
      <point x="114" y="0"/>
      <point x="10" y="0" type="curve"/>
      <point x="10" y="73" type="line"/>
      <point x="50" y="73"/>
      <point x="83" y="94"/>
      <point x="83" y="160" type="curve" smooth="yes"/>
      <point x="83" y="460" type="line"/>
    </contour>
  </outline>
</glyph>
<glyph name="uni0442" format="2">
  <advance width="280"/>
  <unicode hex="0442"/>
  <outline>
    <contour>
      <point x="5" y="460" type="line"/>
      <point x="275" y="460" type="line"/>
      <point x="275" y="385" type="line"/>
      <point x="5" y="385" type="line"/>
    </contour>
    <contour>
      <point x="100" y="440" type="line"/>
      <point x="180" y="440" type="line"/>
      <point x="180" y="0" type="line"/>
      <point x="100" y="0" type="line"/>
    </contour>
  </outline>
</glyph>
<glyph name="uni0444" format="2">
  <advance width="586"/>
  <unicode hex="0444"/>
  <outline>
    <contour>
      <point x="253" y="560" type="line"/>
      <point x="333" y="560" type="line"/>
      <point x="333" y="-100" type="line"/>
      <point x="253" y="-100" type="line"/>
    </contour>
    <contour>
      <point x="35" y="230" type="curve" smooth="yes"/>
      <point x="35" y="369"/>
      <point x="138" y="470"/>
      <point x="293" y="470" type="curve" smooth="yes"/>
      <point x="448" y="470"/>
      <point x="551" y="369"/>
      <point x="551" y="230" type="curve" smooth="yes"/>
      <point x="551" y="91"/>
      <point x="448" y="-10"/>
      <point x="293" y="-10" type="curve" smooth="yes"/>
      <point x="138" y="-10"/>
      <point x="35" y="91"/>
    </contour>
    <contour>
      <point x="116" y="230" type="curve" smooth="yes"/>
      <point x="116" y="134"/>
      <point x="183" y="65"/>
      <point x="293" y="65" type="curve" smooth="yes"/>
      <point x="403" y="65"/>
      <point x="470" y="134"/>
      <point x="470" y="230" type="curve" smooth="yes"/>
      <point x="470" y="326"/>
      <point x="403" y="395"/>
      <point x="293" y="395" type="curve" smooth="yes"/>
      <point x="183" y="395"/>
      <point x="116" y="326"/>
    </contour>
  </outline>
</glyph>
<glyph name="uni045C" format="2">
  <advance width="440"/>
  <unicode hex="045C"/>
  <outline>
    <contour>
      <point x="70" y="460" type="line"/>
      <point x="150" y="460" type="line"/>
      <point x="150" y="0" type="line"/>
      <point x="70" y="0" type="line"/>
    </contour>
    <contour>
      <point x="320" y="460" type="line"/>
      <point x="420" y="460" type="line"/>
      <point x="220" y="270" type="line"/>
      <point x="440" y="0" type="line"/>
      <point x="340" y="0" type="line"/>
      <point x="120" y="270" type="line"/>
    </contour>
    <contour>
      <point x="425" y="680" type="line"/>
      <point x="245" y="530" type="line"/>
      <point x="200" y="560" type="line"/>
      <point x="350" y="720" type="line"/>
    </contour>
  </outline>
</glyph>
<glyph name="uni045E" format="2">
  <advance width="440"/>
  <unicode hex="045E"/>
  <outline>
    <contour>
      <point x="440" y="460" type="line"/>
      <point x="140" y="-220" type="line"/>
      <point x="50" y="-220" type="line"/>
      <point x="176" y="65" type="line"/>
      <point x="0" y="460" type="line"/>
      <point x="95" y="460" type="line"/>
      <point x="241" y="100" type="line"/>
      <point x="208" y="104" type="line"/>
      <point x="350" y="460" type="line"/>
    </contour>
    <contour>
      <point x="62" y="670" type="curve"/>
      <point x="133" y="670" type="line"/>
      <point x="133" y="644"/>
      <point x="150" y="595"/>
      <point x="220" y="595" type="curve" smooth="yes"/>
      <point x="290" y="595"/>
      <point x="307" y="644"/>
      <point x="307" y="670" type="curve"/>
      <point x="378" y="670" type="line"/>
      <point x="378" y="601"/>
      <point x="325" y="530"/>
      <point x="220" y="530" type="curve" smooth="yes"/>
      <point x="115" y="530"/>
      <point x="62" y="601"/>
    </contour>
  </outline>
</glyph>
<glyph name="uni2031" format="2">
  <advance width="1511"/>
  <unicode hex="2031"/>
  <outline>
    <contour>
      <point x="1160" y="150" type="curve" smooth="yes"/>
      <point x="1160" y="239"/>
      <point x="1223" y="310"/>
      <point x="1318" y="310" type="curve" smooth="yes"/>
      <point x="1413" y="310"/>
      <point x="1476" y="239"/>
      <point x="1476" y="150" type="curve" smooth="yes"/>
      <point x="1476" y="61"/>
      <point x="1413" y="-10"/>
      <point x="1318" y="-10" type="curve" smooth="yes"/>
      <point x="1223" y="-10"/>
      <point x="1160" y="61"/>
    </contour>
    <contour>
      <point x="1231" y="150" type="curve" smooth="yes"/>
      <point x="1231" y="99"/>
      <point x="1263" y="55"/>
      <point x="1318" y="55" type="curve" smooth="yes"/>
      <point x="1373" y="55"/>
      <point x="1405" y="99"/>
      <point x="1405" y="150" type="curve" smooth="yes"/>
      <point x="1405" y="201"/>
      <point x="1373" y="245"/>
      <point x="1318" y="245" type="curve" smooth="yes"/>
      <point x="1263" y="245"/>
      <point x="1231" y="201"/>
    </contour>
    <contour>
      <point x="780" y="150" type="curve" smooth="yes"/>
      <point x="780" y="239"/>
      <point x="843" y="310"/>
      <point x="938" y="310" type="curve" smooth="yes"/>
      <point x="1033" y="310"/>
      <point x="1096" y="239"/>
      <point x="1096" y="150" type="curve" smooth="yes"/>
      <point x="1096" y="61"/>
      <point x="1033" y="-10"/>
      <point x="938" y="-10" type="curve" smooth="yes"/>
      <point x="843" y="-10"/>
      <point x="780" y="61"/>
    </contour>
    <contour>
      <point x="851" y="150" type="curve" smooth="yes"/>
      <point x="851" y="99"/>
      <point x="883" y="55"/>
      <point x="938" y="55" type="curve" smooth="yes"/>
      <point x="993" y="55"/>
      <point x="1025" y="99"/>
      <point x="1025" y="150" type="curve" smooth="yes"/>
      <point x="1025" y="201"/>
      <point x="993" y="245"/>
      <point x="938" y="245" type="curve" smooth="yes"/>
      <point x="883" y="245"/>
      <point x="851" y="201"/>
    </contour>
    <contour>
      <point x="35" y="550" type="curve" smooth="yes"/>
      <point x="35" y="639"/>
      <point x="98" y="710"/>
      <point x="193" y="710" type="curve" smooth="yes"/>
      <point x="288" y="710"/>
      <point x="351" y="639"/>
      <point x="351" y="550" type="curve" smooth="yes"/>
      <point x="351" y="461"/>
      <point x="288" y="390"/>
      <point x="193" y="390" type="curve" smooth="yes"/>
      <point x="98" y="390"/>
      <point x="35" y="461"/>
    </contour>
    <contour>
      <point x="106" y="550" type="curve" smooth="yes"/>
      <point x="106" y="499"/>
      <point x="138" y="455"/>
      <point x="193" y="455" type="curve" smooth="yes"/>
      <point x="248" y="455"/>
      <point x="280" y="499"/>
      <point x="280" y="550" type="curve" smooth="yes"/>
      <point x="280" y="601"/>
      <point x="248" y="645"/>
      <point x="193" y="645" type="curve" smooth="yes"/>
      <point x="138" y="645"/>
      <point x="106" y="601"/>
    </contour>
    <contour>
      <point x="400" y="150" type="curve" smooth="yes"/>
      <point x="400" y="239"/>
      <point x="463" y="310"/>
      <point x="558" y="310" type="curve" smooth="yes"/>
      <point x="653" y="310"/>
      <point x="716" y="239"/>
      <point x="716" y="150" type="curve" smooth="yes"/>
      <point x="716" y="61"/>
      <point x="653" y="-10"/>
      <point x="558" y="-10" type="curve" smooth="yes"/>
      <point x="463" y="-10"/>
      <point x="400" y="61"/>
    </contour>
    <contour>
      <point x="471" y="150" type="curve" smooth="yes"/>
      <point x="471" y="99"/>
      <point x="503" y="55"/>
      <point x="558" y="55" type="curve" smooth="yes"/>
      <point x="613" y="55"/>
      <point x="645" y="99"/>
      <point x="645" y="150" type="curve" smooth="yes"/>
      <point x="645" y="201"/>
      <point x="613" y="245"/>
      <point x="558" y="245" type="curve" smooth="yes"/>
      <point x="503" y="245"/>
      <point x="471" y="201"/>
    </contour>
    <contour>
      <point x="563" y="700" type="line"/>
      <point x="638" y="700" type="line"/>
      <point x="188" y="0" type="line"/>
      <point x="113" y="0" type="line"/>
    </contour>
  </outline>
</glyph>
<glyph name="uni2077" format="2">
  <advance width="354"/>
  <unicode hex="2077"/>
  <outline>
    <contour>
      <point x="30" y="652" type="line"/>
      <point x="30" y="700" type="line"/>
      <point x="324" y="700" type="line"/>
      <point x="123" y="280" type="line"/>
      <point x="70" y="280" type="line"/>
      <point x="248" y="652" type="line"/>
    </contour>
  </outline>
</glyph>
<glyph name="uni2082" format="2">
  <advance width="346"/>
  <unicode hex="2082"/>
  <outline>
    <contour>
      <point x="25" y="2" type="line"/>
      <point x="223" y="214" type="line" smooth="yes"/>
      <point x="251" y="243"/>
      <point x="267" y="272"/>
      <point x="267" y="306" type="curve" smooth="yes"/>
      <point x="267" y="343"/>
      <point x="242" y="381"/>
      <point x="191" y="381" type="curve" smooth="yes"/>
      <point x="137" y="381"/>
      <point x="100" y="342"/>
      <point x="100" y="278" type="curve"/>
      <point x="49" y="278" type="line"/>
      <point x="49" y="367"/>
      <point x="104" y="429"/>
      <point x="191" y="429" type="curve" smooth="yes"/>
      <point x="283" y="429"/>
      <point x="319" y="358"/>
      <point x="319" y="302" type="curve" smooth="yes"/>
      <point x="319" y="259"/>
      <point x="296" y="220"/>
      <point x="263" y="186" type="curve" smooth="yes"/>
      <point x="130" y="50" type="line"/>
      <point x="321" y="50" type="line"/>
      <point x="321" y="2" type="line"/>
    </contour>
  </outline>
</glyph>
<glyph name="uni2083" format="2">
  <advance width="312"/>
  <unicode hex="2083"/>
  <outline>
    <contour>
      <point x="141" y="207" type="curve"/>
      <point x="141" y="240" type="line"/>
      <point x="195" y="240"/>
      <point x="226" y="273"/>
      <point x="226" y="313" type="curve" smooth="yes"/>
      <point x="226" y="353"/>
      <point x="204" y="380"/>
      <point x="162" y="380" type="curve" smooth="yes"/>
      <point x="123" y="380"/>
      <point x="92" y="353"/>
      <point x="92" y="316" type="curve"/>
      <point x="43" y="316" type="line"/>
      <point x="43" y="381"/>
      <point x="93" y="426"/>
      <point x="162" y="426" type="curve" smooth="yes"/>
      <point x="234" y="426"/>
      <point x="278" y="373"/>
      <point x="278" y="314" type="curve" smooth="yes"/>
      <point x="278" y="255"/>
      <point x="222" y="207"/>
    </contour>
    <contour>
      <point x="159" y="-6" type="curve" smooth="yes"/>
      <point x="78" y="-6"/>
      <point x="25" y="46"/>
      <point x="25" y="111" type="curve"/>
      <point x="77" y="111" type="line"/>
      <point x="77" y="71"/>
      <point x="111" y="42"/>
      <point x="159" y="42" type="curve" smooth="yes"/>
      <point x="207" y="42"/>
      <point x="238" y="71"/>
      <point x="238" y="117" type="curve" smooth="yes"/>
      <point x="238" y="169"/>
      <point x="195" y="195"/>
      <point x="141" y="195" type="curve"/>
      <point x="141" y="228" type="line"/>
      <point x="222" y="228"/>
      <point x="290" y="194"/>
      <point x="290" y="111" type="curve" smooth="yes"/>
      <point x="290" y="40"/>
      <point x="234" y="-6"/>
    </contour>
  </outline>
</glyph>
<glyph name="uni2088" format="2">
  <advance width="322"/>
  <unicode hex="2088"/>
  <outline>
    <contour>
      <point x="45" y="319" type="curve" smooth="yes"/>
      <point x="45" y="378"/>
      <point x="95" y="426"/>
      <point x="161" y="426" type="curve" smooth="yes"/>
      <point x="227" y="426"/>
      <point x="277" y="378"/>
      <point x="277" y="319" type="curve" smooth="yes"/>
      <point x="277" y="254"/>
      <point x="230" y="213"/>
      <point x="161" y="213" type="curve" smooth="yes"/>
      <point x="92" y="213"/>
      <point x="45" y="254"/>
    </contour>
    <contour>
      <point x="94" y="313" type="curve" smooth="yes"/>
      <point x="94" y="273"/>
      <point x="125" y="246"/>
      <point x="161" y="246" type="curve" smooth="yes"/>
      <point x="197" y="246"/>
      <point x="228" y="273"/>
      <point x="228" y="313" type="curve" smooth="yes"/>
      <point x="228" y="353"/>
      <point x="200" y="381"/>
      <point x="161" y="381" type="curve" smooth="yes"/>
      <point x="122" y="381"/>
      <point x="94" y="353"/>
    </contour>
    <contour>
      <point x="30" y="114" type="curve" smooth="yes"/>
      <point x="30" y="191"/>
      <point x="92" y="234"/>
      <point x="161" y="234" type="curve" smooth="yes"/>
      <point x="230" y="234"/>
      <point x="292" y="191"/>
      <point x="292" y="114" type="curve" smooth="yes"/>
      <point x="292" y="49"/>
      <point x="236" y="-6"/>
      <point x="161" y="-6" type="curve" smooth="yes"/>
      <point x="86" y="-6"/>
      <point x="30" y="49"/>
    </contour>
    <contour>
      <point x="79" y="120" type="curve" smooth="yes"/>
      <point x="79" y="68"/>
      <point x="119" y="39"/>
      <point x="161" y="39" type="curve" smooth="yes"/>
      <point x="203" y="39"/>
      <point x="243" y="68"/>
      <point x="243" y="120" type="curve" smooth="yes"/>
      <point x="243" y="166"/>
      <point x="203" y="201"/>
      <point x="161" y="201" type="curve" smooth="yes"/>
      <point x="119" y="201"/>
      <point x="79" y="166"/>
    </contour>
  </outline>
</glyph>
<glyph name="uni2151" format="2">
  <advance width="784"/>
  <unicode hex="2151"/>
  <outline>
    <contour>
      <point x="568" y="700" type="line"/>
      <point x="633" y="700" type="line"/>
      <point x="113" y="0" type="line"/>
      <point x="48" y="0" type="line"/>
    </contour>
    <contour>
      <point x="30" y="611" type="line"/>
      <point x="30" y="664" type="line"/>
      <point x="174" y="700" type="line"/>
      <point x="174" y="274" type="line"/>
      <point x="123" y="274" type="line"/>
      <point x="123" y="639" type="line"/>
    </contour>
    <contour>
      <point x="717" y="284" type="curve" smooth="yes"/>
      <point x="717" y="342"/>
      <point x="677" y="382"/>
      <point x="623" y="382" type="curve" smooth="yes"/>
      <point x="569" y="382"/>
      <point x="529" y="342"/>
      <point x="529" y="284" type="curve" smooth="yes"/>
      <point x="529" y="226"/>
      <point x="569" y="185"/>
      <point x="623" y="185" type="curve" smooth="yes"/>
      <point x="677" y="185"/>
      <point x="717" y="226"/>
    </contour>
    <contour>
      <point x="598" y="2" type="line"/>
      <point x="533" y="2" type="line"/>
      <point x="665" y="175" type="line"/>
      <point x="668" y="172" type="line"/>
      <point x="652" y="152"/>
      <point x="631" y="148"/>
      <point x="604" y="148" type="curve" smooth="yes"/>
      <point x="536" y="148"/>
      <point x="480" y="207"/>
      <point x="480" y="284" type="curve" smooth="yes"/>
      <point x="480" y="370"/>
      <point x="542" y="428"/>
      <point x="623" y="428" type="curve" smooth="yes"/>
      <point x="704" y="428"/>
      <point x="766" y="370"/>
      <point x="766" y="284" type="curve" smooth="yes"/>
      <point x="766" y="250"/>
      <point x="755" y="219"/>
      <point x="739" y="197" type="curve" smooth="yes"/>
    </contour>
  </outline>
</glyph>
<glyph name="uni2157" format="2">
  <advance width="831"/>
  <unicode hex="2157"/>
  <outline>
    <contour>
      <point x="655" y="700" type="line"/>
      <point x="720" y="700" type="line"/>
      <point x="200" y="0" type="line"/>
      <point x="135" y="0" type="line"/>
    </contour>
    <contour>
      <point x="146" y="487" type="curve"/>
      <point x="146" y="520" type="line"/>
      <point x="200" y="520"/>
      <point x="231" y="553"/>
      <point x="231" y="593" type="curve" smooth="yes"/>
      <point x="231" y="633"/>
      <point x="209" y="660"/>
      <point x="167" y="660" type="curve" smooth="yes"/>
      <point x="128" y="660"/>
      <point x="97" y="633"/>
      <point x="97" y="596" type="curve"/>
      <point x="48" y="596" type="line"/>
      <point x="48" y="661"/>
      <point x="98" y="706"/>
      <point x="167" y="706" type="curve" smooth="yes"/>
      <point x="239" y="706"/>
      <point x="283" y="653"/>
      <point x="283" y="594" type="curve" smooth="yes"/>
      <point x="283" y="535"/>
      <point x="227" y="487"/>
    </contour>
    <contour>
      <point x="164" y="274" type="curve" smooth="yes"/>
      <point x="83" y="274"/>
      <point x="30" y="326"/>
      <point x="30" y="391" type="curve"/>
      <point x="82" y="391" type="line"/>
      <point x="82" y="351"/>
      <point x="116" y="322"/>
      <point x="164" y="322" type="curve" smooth="yes"/>
      <point x="212" y="322"/>
      <point x="243" y="351"/>
      <point x="243" y="397" type="curve" smooth="yes"/>
      <point x="243" y="449"/>
      <point x="200" y="475"/>
      <point x="146" y="475" type="curve"/>
      <point x="146" y="508" type="line"/>
      <point x="227" y="508"/>
      <point x="295" y="474"/>
      <point x="295" y="391" type="curve" smooth="yes"/>
      <point x="295" y="320"/>
      <point x="239" y="274"/>
    </contour>
    <contour>
      <point x="801" y="136" type="curve" smooth="yes"/>
      <point x="801" y="41"/>
      <point x="735" y="-8"/>
      <point x="654" y="-8" type="curve" smooth="yes"/>
      <point x="577" y="-8"/>
      <point x="533" y="32"/>
      <point x="505" y="80" type="curve"/>
      <point x="548" y="110" type="line"/>
      <point x="567" y="74"/>
      <point x="608" y="40"/>
      <point x="654" y="40" type="curve" smooth="yes"/>
      <point x="714" y="40"/>
      <point x="748" y="78"/>
      <point x="748" y="136" type="curve" smooth="yes"/>
      <point x="748" y="194"/>
      <point x="708" y="232"/>
      <point x="654" y="232" type="curve" smooth="yes"/>
      <point x="614" y="232"/>
      <point x="590" y="224"/>
      <point x="547" y="194" type="curve"/>
      <point x="577" y="234" type="line"/>
      <point x="605" y="264"/>
      <point x="641" y="278"/>
      <point x="676" y="278" type="curve" smooth="yes"/>
      <point x="748" y="278"/>
      <point x="801" y="219"/>
    </contour>
    <contour>
      <point x="641" y="373" type="line"/>
      <point x="610" y="248" type="line"/>
      <point x="547" y="194" type="line"/>
      <point x="602" y="418" type="line"/>
      <point x="800" y="418" type="line"/>
      <point x="800" y="373" type="line"/>
    </contour>
  </outline>
</glyph>
<glyph name="partialdiff" format="2">
  <advance width="546"/>
  <unicode hex="2202"/>
  <outline>
    <contour>
      <point x="273" y="-10" type="curve" smooth="yes"/>
      <point x="134" y="-10"/>
      <point x="35" y="90"/>
      <point x="35" y="230" type="curve" smooth="yes"/>
      <point x="35" y="361"/>
      <point x="122" y="457"/>
      <point x="242" y="457" type="curve" smooth="yes"/>
      <point x="302" y="457"/>
      <point x="367" y="433"/>
      <point x="434" y="386" type="curve"/>
      <point x="388" y="386" type="line"/>
      <point x="344" y="479"/>
      <point x="272" y="566"/>
      <point x="158" y="669" type="curve"/>
      <point x="206" y="725" type="line"/>
      <point x="420" y="511"/>
      <point x="511" y="364"/>
      <point x="511" y="230" type="curve" smooth="yes"/>
      <point x="511" y="90"/>
      <point x="412" y="-10"/>
    </contour>
    <contour>
      <point x="273" y="67" type="curve" smooth="yes"/>
      <point x="365" y="67"/>
      <point x="430" y="136"/>
      <point x="430" y="230" type="curve" smooth="yes"/>
      <point x="430" y="325"/>
      <point x="363" y="395"/>
      <point x="273" y="395" type="curve" smooth="yes"/>
      <point x="183" y="395"/>
      <point x="116" y="325"/>
      <point x="116" y="230" type="curve" smooth="yes"/>
      <point x="116" y="136"/>
      <point x="181" y="67"/>
    </contour>
  </outline>
</glyph>
<glyph name="emptyset" format="2">
  <advance width="600"/>
  <unicode hex="2205"/>
  <outline>
    <contour>
      <point x="300" y="28" type="curve" smooth="yes"/>
      <point x="182" y="28"/>
      <point x="86" y="124"/>
      <point x="86" y="242" type="curve" smooth="yes"/>
      <point x="86" y="360"/>
      <point x="182" y="456"/>
      <point x="300" y="456" type="curve" smooth="yes"/>
      <point x="418" y="456"/>
      <point x="514" y="360"/>
      <point x="514" y="242" type="curve" smooth="yes"/>
      <point x="514" y="124"/>
      <point x="418" y="28"/>
    </contour>
    <contour>
      <point x="300" y="90" type="curve" smooth="yes"/>
      <point x="385" y="90"/>
      <point x="452" y="162"/>
      <point x="452" y="242" type="curve" smooth="yes"/>
      <point x="452" y="326"/>
      <point x="384" y="394"/>
      <point x="300" y="394" type="curve" smooth="yes"/>
      <point x="216" y="394"/>
      <point x="148" y="326"/>
      <point x="148" y="242" type="curve" smooth="yes"/>
      <point x="148" y="158"/>
      <point x="216" y="90"/>
    </contour>
    <contour>
      <point x="124" y="30" type="line"/>
      <point x="87" y="66" type="line"/>
      <point x="476" y="454" type="line"/>
      <point x="514" y="418" type="line"/>
    </contour>
  </outline>
</glyph>
<glyph name="product" format="2">
  <advance width="600"/>
  <unicode hex="220F"/>
  <outline>
    <contour>
      <point x="160" y="0" type="line"/>
      <point x="160" y="630" type="line"/>
      <point x="75" y="630" type="line"/>
      <point x="75" y="700" type="line"/>
      <point x="525" y="700" type="line"/>
      <point x="525" y="630" type="line"/>
      <point x="440" y="630" type="line"/>
      <point x="440" y="0" type="line"/>
      <point x="360" y="0" type="line"/>
      <point x="360" y="630" type="line"/>
      <point x="240" y="630" type="line"/>
      <point x="240" y="0" type="line"/>
    </contour>
  </outline>
</glyph>
<glyph name="infinity" format="2">
  <advance width="750"/>
  <unicode hex="221E"/>
  <outline>
    <contour>
      <point x="191" y="48" type="curve" smooth="yes"/>
      <point x="101" y="48"/>
      <point x="22" y="133"/>
      <point x="22" y="230" type="curve" smooth="yes"/>
      <point x="22" y="327"/>
      <point x="101" y="410"/>
      <point x="191" y="410" type="curve" smooth="yes"/>
      <point x="253" y="410"/>
      <point x="314" y="370"/>
      <point x="376" y="290" type="curve"/>
      <point x="438" y="370"/>
      <point x="498" y="410"/>
      <point x="560" y="410" type="curve" smooth="yes"/>
      <point x="650" y="410"/>
      <point x="728" y="327"/>
      <point x="728" y="230" type="curve" smooth="yes"/>
      <point x="728" y="133"/>
      <point x="650" y="48"/>
      <point x="560" y="48" type="curve" smooth="yes"/>
      <point x="498" y="48"/>
      <point x="438" y="88"/>
      <point x="376" y="168" type="curve"/>
      <point x="313" y="88"/>
      <point x="253" y="48"/>
    </contour>
    <contour>
      <point x="202" y="126" type="curve" smooth="yes"/>
      <point x="246" y="126"/>
      <point x="291" y="163"/>
      <point x="333" y="230" type="curve"/>
      <point x="293" y="296"/>
      <point x="246" y="333"/>
      <point x="202" y="333" type="curve" smooth="yes"/>
      <point x="152" y="333"/>
      <point x="106" y="285"/>
      <point x="106" y="230" type="curve" smooth="yes"/>
      <point x="106" y="176"/>
      <point x="152" y="126"/>
    </contour>
    <contour>
      <point x="549" y="126" type="curve" smooth="yes"/>
      <point x="599" y="126"/>
      <point x="644" y="176"/>
      <point x="644" y="230" type="curve" smooth="yes"/>
      <point x="644" y="285"/>
      <point x="599" y="333"/>
      <point x="549" y="333" type="curve" smooth="yes"/>
      <point x="505" y="333"/>
      <point x="458" y="296"/>
      <point x="418" y="230" type="curve"/>
      <point x="458" y="164"/>
      <point x="505" y="126"/>
    </contour>
  </outline>
</glyph>
<glyph name="approxequal" format="2">
  <advance width="600"/>
  <unicode hex="2248"/>
  <outline>
    <contour>
      <point x="394" y="372" type="curve" smooth="yes"/>
      <point x="468" y="372"/>
      <point x="524" y="443"/>
      <point x="506" y="518" type="curve"/>
      <point x="427" y="523" type="line"/>
      <point x="443" y="483"/>
      <point x="426" y="447"/>
      <point x="390" y="447" type="curve" smooth="yes"/>
      <point x="370" y="447"/>
      <point x="345" y="457"/>
      <point x="317" y="479" type="curve" smooth="yes"/>
      <point x="277" y="510"/>
      <point x="232" y="527"/>
      <point x="194" y="527" type="curve" smooth="yes"/>
      <point x="113" y="527"/>
      <point x="48" y="451"/>
      <point x="68" y="381" type="curve"/>
      <point x="142" y="376" type="line"/>
      <point x="128" y="420"/>
      <point x="149" y="453"/>
      <point x="193" y="453" type="curve" smooth="yes"/>
      <point x="223" y="453"/>
      <point x="247" y="444"/>
      <point x="279" y="420" type="curve" smooth="yes"/>
      <point x="321" y="388"/>
      <point x="360" y="372"/>
    </contour>
    <contour>
      <point x="394" y="122" type="curve" smooth="yes"/>
      <point x="468" y="122"/>
      <point x="524" y="193"/>
      <point x="506" y="268" type="curve"/>
      <point x="427" y="273" type="line"/>
      <point x="443" y="233"/>
      <point x="426" y="197"/>
      <point x="390" y="197" type="curve" smooth="yes"/>
      <point x="370" y="197"/>
      <point x="345" y="207"/>
      <point x="317" y="229" type="curve" smooth="yes"/>
      <point x="277" y="260"/>
      <point x="232" y="277"/>
      <point x="194" y="277" type="curve" smooth="yes"/>
      <point x="113" y="277"/>
      <point x="48" y="201"/>
      <point x="68" y="131" type="curve"/>
      <point x="142" y="126" type="line"/>
      <point x="128" y="170"/>
      <point x="149" y="203"/>
      <point x="193" y="203" type="curve" smooth="yes"/>
      <point x="223" y="203"/>
      <point x="247" y="194"/>
      <point x="279" y="170" type="curve" smooth="yes"/>
      <point x="321" y="138"/>
      <point x="360" y="122"/>
    </contour>
  </outline>
</glyph>
<glyph name="notequal" format="2">
  <advance width="600"/>
  <unicode hex="2260"/>
  <outline>
    <contour>
      <point x="219" y="34" type="line"/>
      <point x="461" y="454" type="line"/>
      <point x="396" y="492" type="line"/>
      <point x="154" y="72" type="line"/>
    </contour>
    <contour>
      <point x="65" y="140" type="line"/>
      <point x="550" y="140" type="line"/>
      <point x="550" y="215" type="line"/>
      <point x="65" y="215" type="line"/>
    </contour>
    <contour>
      <point x="65" y="290" type="line"/>
      <point x="550" y="290" type="line"/>
      <point x="550" y="365" type="line"/>
      <point x="65" y="365" type="line"/>
    </contour>
  </outline>
</glyph>
<glyph name="lessequal" format="2">
  <advance width="600"/>
  <unicode hex="2264"/>
  <outline>
    <contour>
      <point x="40" y="0" type="line"/>
      <point x="550" y="0" type="line"/>
      <point x="550" y="80" type="line"/>
      <point x="40" y="80" type="line"/>
    </contour>
    <contour>
      <point x="550" y="115" type="line"/>
      <point x="550" y="195" type="line"/>
      <point x="172" y="362" type="line"/>
      <point x="550" y="520" type="line"/>
      <point x="550" y="600" type="line"/>
      <point x="40" y="380" type="line"/>
      <point x="40" y="335" type="line"/>
    </contour>
  </outline>
</glyph>
<glyph name="greaterequal" format="2">
  <advance width="600"/>
  <unicode hex="2265"/>
  <outline>
    <contour>
      <point x="65" y="0" type="line"/>
      <point x="575" y="0" type="line"/>
      <point x="575" y="80" type="line"/>
      <point x="65" y="80" type="line"/>
    </contour>
    <contour>
      <point x="65" y="115" type="line"/>
      <point x="575" y="335" type="line"/>
      <point x="575" y="380" type="line"/>
      <point x="65" y="600" type="line"/>
      <point x="65" y="520" type="line"/>
      <point x="443" y="353" type="line"/>
      <point x="65" y="195" type="line"/>
    </contour>
  </outline>
</glyph>
<glyph name="uniFF16" format="2">
  <advance width="580"/>
  <unicode hex="FF16"/>
  <outline>
    <contour>
      <point x="133" y="230" type="curve" smooth="yes"/>
      <point x="133" y="134"/>
      <point x="200" y="67"/>
      <point x="290" y="67" type="curve" smooth="yes"/>
      <point x="380" y="67"/>
      <point x="447" y="134"/>
      <point x="447" y="230" type="curve" smooth="yes"/>
      <point x="447" y="326"/>
      <point x="380" y="395"/>
      <point x="290" y="395" type="curve" smooth="yes"/>
      <point x="200" y="395"/>
      <point x="133" y="326"/>
    </contour>
    <contour>
      <point x="332" y="700" type="line"/>
      <point x="439" y="700" type="line"/>
      <point x="220" y="411" type="line"/>
      <point x="214" y="416" type="line"/>
      <point x="241" y="449"/>
      <point x="276" y="457"/>
      <point x="321" y="457" type="curve" smooth="yes"/>
      <point x="435" y="457"/>
      <point x="528" y="359"/>
      <point x="528" y="230" type="curve" smooth="yes"/>
      <point x="528" y="86"/>
      <point x="425" y="-10"/>
      <point x="290" y="-10" type="curve" smooth="yes"/>
      <point x="155" y="-10"/>
      <point x="52" y="86"/>
      <point x="52" y="230" type="curve" smooth="yes"/>
      <point x="52" y="287"/>
      <point x="69" y="338"/>
      <point x="96" y="375" type="curve" smooth="yes"/>
    </contour>
  </outline>
</glyph>
